<?xml version="1.0" encoding="UTF-8" standalone="no"?><!DOCTYPE svg PUBLIC "-//W3C//DTD SVG 1.1//EN" "http://www.w3.org/Graphics/SVG/1.1/DTD/svg11.dtd"><svg width="100%" height="100%" viewBox="0 0 5163 2033" version="1.1" xmlns="http://www.w3.org/2000/svg" xmlns:xlink="http://www.w3.org/1999/xlink" xml:space="preserve" xmlns:serif="http://www.serif.com/" style="fill-rule:evenodd;clip-rule:evenodd;stroke-linejoin:round;stroke-miterlimit:2;"><g id="logo"><rect x="746.566" y="1551.082" width="359.15" height="0.802" style="fill:#fff;fill-opacity:0.38;"/><path d="M746.566,1303.54c-6.952,23.072 -14.738,44.56 -23.357,64.465c-31.839,73.534 -75.808,127.737 -131.906,162.608c-56.098,34.872 -125.083,52.308 -206.956,52.308c-130.39,0 -227.045,-45.485 -289.966,-136.455c-62.921,-90.97 -94.381,-230.457 -94.381,-418.461l0,-677.724l368.427,0l0,673.176c0,87.937 12.508,149.342 37.525,184.214c25.017,34.872 61.026,52.308 108.027,52.308c33.356,0 64.058,-8.718 92.107,-26.154c28.049,-17.436 52.687,-43.969 73.913,-79.598c21.226,-35.63 37.525,-81.494 48.896,-137.592c11.371,-56.098 17.057,-123.567 17.057,-202.408l0,-463.945l359.765,-0l-0,0.534c7.996,-0.356 16.125,-0.534 24.387,-0.534c2.068,0 4.127,0.011 6.177,0.033c81.469,0.885 148.876,19.348 202.219,55.391c54.685,36.95 96.808,92.744 126.368,167.382c11.851,29.923 24.775,65.337 30.564,99.57c24.582,145.359 33.836,410.203 64.292,461.326c20.692,34.733 44.709,60.597 72.052,77.594c27.343,16.997 57.272,25.495 89.788,25.495c45.818,0 80.92,-16.997 105.306,-50.99c6.591,-9.188 12.291,-20.264 17.101,-33.231c12.986,-35.008 19.479,-83.79 19.479,-146.344l0,-656.225l359.15,0l0,660.659c0,183.27 -30.668,319.245 -92.005,407.924c-61.336,88.679 -155.558,133.019 -282.665,133.019l-3.96,-0.014c-78.078,-0.554 -144.006,-17.547 -197.785,-50.976c-54.685,-33.994 -97.547,-86.832 -128.585,-158.514c-69.125,-159.646 -32.237,-525.988 -141.413,-635.164c-32.549,-32.549 -73.16,-46.557 -117.5,-46.557c-53.207,0 -92.005,19.953 -116.391,59.858c-2.095,3.429 -4.101,7.005 -6.016,10.729c-20.376,39.611 -30.564,95.893 -30.564,168.846l0,650.99l-359.15,0l0,-247.542Z" style="fill:#fff;"/><rect x="2373.243" y="350.282" width="359.15" height="1201.602" style="fill:#fff;fill-rule:nonzero;"/><path d="M2889.909,1551.884l0,-1551.884l350.282,0l0,822.499c50.251,-26.604 93.483,-56.902 129.693,-90.896c36.211,-33.994 66.879,-70.574 92.005,-109.74c25.126,-39.167 45.448,-79.072 60.967,-119.717c15.519,-40.645 28.451,-80.92 38.797,-120.825l412.358,0c-16.258,59.119 -39.536,116.391 -69.835,171.816c-30.299,55.424 -67.618,107.154 -111.957,155.188c-44.34,48.035 -95.7,91.266 -154.08,129.693c-58.38,38.428 -123.042,70.204 -193.986,95.33l0,17.736c91.635,-14.78 166.643,-16.627 225.023,-5.542c58.38,11.085 104.567,31.777 138.561,62.075c33.994,30.299 60.228,68.357 78.703,114.174c18.475,45.818 32.885,96.808 43.231,152.971l50.99,277.122l-387.971,0l-24.387,-195.094c-5.912,-47.296 -14.041,-91.635 -24.387,-133.019c-10.346,-41.384 -30.299,-75.008 -59.858,-100.872c-29.56,-25.865 -76.116,-38.797 -139.67,-38.797l-104.198,0l0,467.782l-350.282,0Z" style="fill:#fff;fill-rule:nonzero;"/><path d="M4579.246,1582.922c-112.327,0 -212.091,-22.539 -299.292,-67.618c-87.201,-45.079 -155.188,-113.066 -203.962,-203.962c-48.774,-90.896 -73.16,-205.07 -73.16,-342.523c0,-143.365 25.495,-260.495 76.486,-351.391c50.99,-90.896 120.456,-158.144 208.396,-201.745c87.94,-43.601 187.335,-65.401 298.183,-65.401c115.283,0 216.155,22.539 302.617,67.618c86.462,45.079 153.71,113.066 201.745,203.962c48.035,90.896 72.052,205.809 72.052,344.74c0,143.365 -25.495,260.495 -76.486,351.391c-50.99,90.896 -120.456,157.775 -208.396,200.636c-87.94,42.862 -187.335,64.292 -298.183,64.292Zm8.868,-263.82c45.818,0 84.245,-12.932 115.283,-38.797c31.038,-25.865 54.685,-63.923 70.943,-114.174c16.258,-50.251 24.387,-110.11 24.387,-179.575c0,-76.855 -8.868,-141.517 -26.604,-193.986c-17.736,-52.468 -43.231,-92.744 -76.486,-120.825c-33.255,-28.082 -73.53,-42.123 -120.825,-42.123c-44.34,0 -82.028,12.932 -113.066,38.797c-31.038,25.865 -54.685,63.923 -70.943,114.174c-16.258,50.251 -24.387,110.849 -24.387,181.792c0,112.327 19.583,199.528 58.75,261.603c39.167,62.075 93.483,93.113 162.948,93.113Z" style="fill:#fff;fill-rule:nonzero;"/><g transform="matrix(1,0,0,0.608108,0,-578.483265)"><g transform="matrix(631.004586,0,0,631.004586,2805.029381,4283.977021)"></g><text x="321.276px" y="4283.977px" style="font-family:'NeutralFaceRegular', 'Neutral Face';font-size:631.005px;fill:#fff;">s<tspan x="720.821px 1214.898px 1680.579px 2163.298px 2290.13px " y="4283.977px 4283.977px 4283.977px 4283.977px 4283.977px ">tudio</tspan></text></g></g></svg>