<?xml version="1.0" encoding="UTF-8" standalone="no"?><!DOCTYPE svg PUBLIC "-//W3C//DTD SVG 1.1//EN" "http://www.w3.org/Graphics/SVG/1.1/DTD/svg11.dtd"><svg width="100%" height="100%" viewBox="0 0 1217 480" version="1.1" xmlns="http://www.w3.org/2000/svg" xmlns:xlink="http://www.w3.org/1999/xlink" xml:space="preserve" xmlns:serif="http://www.serif.com/" style="fill-rule:evenodd;clip-rule:evenodd;stroke-linejoin:round;stroke-miterlimit:2;"><g id="logo"><rect x="175.91" y="365.474" width="84.625" height="0.189" style="fill-opacity:0.38;"/><path d="M175.91,307.147c-1.638,5.436 -3.473,10.499 -5.503,15.19c-7.502,17.326 -17.862,30.098 -31.08,38.315c-13.218,8.217 -29.473,12.325 -48.764,12.325c-30.723,0 -53.498,-10.717 -68.323,-32.152c-14.826,-21.435 -22.239,-54.301 -22.239,-98.6l0,-159.689l86.811,0l0,158.617c0,20.72 2.947,35.189 8.842,43.405c5.895,8.217 14.379,12.325 25.454,12.325c7.859,0 15.094,-2.054 21.703,-6.162c6.609,-4.108 12.414,-10.36 17.416,-18.755c5.001,-8.395 8.842,-19.202 11.521,-32.42c2.679,-13.218 4.019,-29.116 4.019,-47.692l0,-109.317l84.77,-0l-0,0.126c1.884,-0.084 3.799,-0.126 5.746,-0.126c0.487,0 0.972,0.003 1.455,0.008c19.196,0.208 35.079,4.559 47.648,13.052c12.885,8.706 22.81,21.853 29.775,39.439c2.792,7.051 5.838,15.395 7.202,23.461c5.792,34.25 7.973,96.654 15.149,108.7c4.876,8.184 10.535,14.278 16.977,18.283c6.443,4.005 13.495,6.007 21.156,6.007c10.796,0 19.067,-4.005 24.813,-12.015c1.553,-2.165 2.896,-4.775 4.029,-7.83c3.06,-8.249 4.59,-19.743 4.59,-34.482l0,-154.623l84.625,0l0,155.668c0,43.183 -7.226,75.222 -21.679,96.117c-14.452,20.895 -36.653,31.343 -66.603,31.343l-0.933,-0.003c-18.397,-0.131 -33.931,-4.134 -46.603,-12.011c-12.885,-8.01 -22.985,-20.46 -30.298,-37.35c-16.288,-37.617 -7.596,-123.936 -33.32,-149.661c-7.669,-7.669 -17.238,-10.97 -27.686,-10.97c-12.537,0 -21.679,4.701 -27.425,14.104c-0.494,0.808 -0.966,1.651 -1.418,2.528c-4.801,9.333 -7.202,22.595 -7.202,39.784l0,153.39l-84.625,0l0,-58.327Z"/><rect x="559.196" y="82.535" width="84.625" height="283.128" style="fill-rule:nonzero;"/><path d="M680.935,365.663l0,-365.663l82.535,0l0,193.801c11.841,-6.269 22.027,-13.408 30.559,-21.417c8.532,-8.01 15.758,-16.629 21.679,-25.858c5.92,-9.229 10.709,-18.631 14.365,-28.208c3.657,-9.577 6.704,-19.067 9.142,-28.469l97.162,0c-3.831,13.93 -9.316,27.425 -16.455,40.484c-7.139,13.059 -15.932,25.248 -26.38,36.566c-10.448,11.318 -22.549,21.504 -36.305,30.559c-13.756,9.055 -28.992,16.542 -45.708,22.462l0,4.179c21.592,-3.483 39.265,-3.918 53.021,-1.306c13.756,2.612 24.639,7.487 32.648,14.627c8.01,7.139 14.191,16.107 18.544,26.902c4.353,10.796 7.749,22.81 10.186,36.044l12.015,65.297l-91.416,0l-5.746,-45.969c-1.393,-11.144 -3.308,-21.592 -5.746,-31.343c-2.438,-9.751 -7.139,-17.674 -14.104,-23.768c-6.965,-6.094 -17.935,-9.142 -32.91,-9.142l-24.552,0l0,110.221l-82.535,0Z" style="fill-rule:nonzero;"/><path d="M1078.985,372.976c-26.467,0 -49.974,-5.311 -70.521,-15.932c-20.547,-10.622 -36.566,-26.641 -48.059,-48.059c-11.492,-21.417 -17.238,-48.32 -17.238,-80.707c0,-33.78 6.007,-61.379 18.022,-82.797c12.015,-21.417 28.382,-37.263 49.103,-47.536c20.721,-10.273 44.141,-15.41 70.26,-15.41c27.164,0 50.932,5.311 71.304,15.932c20.373,10.622 36.218,26.641 47.536,48.059c11.318,21.417 16.977,48.494 16.977,81.229c0,33.78 -6.007,61.379 -18.022,82.797c-12.015,21.417 -28.382,37.176 -49.103,47.275c-20.721,10.099 -44.141,15.149 -70.26,15.149Zm2.09,-62.163c10.796,0 19.85,-3.047 27.164,-9.142c7.313,-6.094 12.885,-15.062 16.716,-26.902c3.831,-11.841 5.746,-25.945 5.746,-42.312c0,-18.109 -2.09,-33.345 -6.269,-45.708c-4.179,-12.363 -10.186,-21.853 -18.022,-28.469c-7.836,-6.617 -17.325,-9.925 -28.469,-9.925c-10.448,0 -19.328,3.047 -26.641,9.142c-7.313,6.094 -12.885,15.062 -16.716,26.902c-3.831,11.841 -5.746,26.119 -5.746,42.835c0,26.467 4.614,47.014 13.843,61.64c9.229,14.627 22.027,21.94 38.395,21.94Z" style="fill-rule:nonzero;"/><g transform="matrix(1,0,0,0.608108,0,-136.3052)"><g transform="matrix(148.680543,0,0,148.680543,660.935438,1009.412681)"></g><text x="75.701px" y="1009.413px" style="font-family:'NeutralFaceRegular', 'Neutral Face';font-size:148.681px;">s<tspan x="169.844px 286.26px 395.987px 509.727px 539.612px " y="1009.413px 1009.413px 1009.413px 1009.413px 1009.413px ">tudio</tspan></text></g></g></svg>